<svg xmlns="http://www.w3.org/2000/svg" xmlns:xlink="http://www.w3.org/1999/xlink" preserveAspectRatio="xMidYMid meet" version="1.0" viewBox="0.0 0.0 4084.9 1627.5" zoomAndPan="magnify" style="fill: rgb(0, 0, 0);" original_string_length="4549"><defs><clipPath id="__id405_sbhd3yumbc"><path d="M 2828 590 L 4084.949219 590 L 4084.949219 1627.460938 L 2828 1627.460938 Z M 2828 590"/></clipPath></defs><g><g clip-path="url(#__id405_sbhd3yumbc)" id="__id406_sbhd3yumbc"><path d="M 4080.183594 1149.699219 C 4063.792969 1039.910156 4005.402344 942.929688 3916.058594 877.144531 C 3832.332031 815.1875 3614.554688 706.074219 3395.222656 630.414062 C 3359.964844 618.292969 3326.28125 607.519531 3294.40625 598.085938 L 3303.625 607.738281 L 3304.054688 608.1875 L 3304.503906 608.636719 C 3337.058594 644.332031 3352.796875 689.460938 3351.441406 734.136719 C 3353.898438 735.035156 3356.152344 735.710938 3358.609375 736.609375 C 3564.933594 807.777344 3773.964844 911.71875 3849.375 967.394531 C 3914.507812 1015.441406 3957.160156 1086.160156 3969.265625 1166.308594 C 3981.394531 1246.679688 3961.421875 1326.609375 3913.378906 1391.941406 C 3853.882812 1472.308594 3761.835938 1514.96875 3668.660156 1514.96875 C 3606.035156 1514.96875 3542.929688 1495.660156 3488.824219 1455.921875 C 3411.8125 1399.121094 3248.84375 1231.191406 3119.757812 1059 C 3117.277344 1055.628906 3114.792969 1052.261719 3112.5625 1049.121094 C 3107.628906 1042.832031 3103.117188 1036.773438 3098.855469 1030.710938 C 3094.371094 1024.421875 3089.882812 1018.359375 3085.625 1012.300781 C 3046.328125 957.070312 3016.90625 909.703125 2995.128906 869.515625 C 2991.320312 862.328125 2987.511719 855.371094 2984.128906 848.632812 C 2980.320312 841.003906 2976.734375 833.59375 2973.578125 826.628906 C 2935.886719 745.8125 2936.085938 702.253906 2947.539062 686.539062 C 2954.28125 677.335938 2969.769531 670.601562 2991.546875 667.234375 C 2971.121094 627.273438 2932.503906 598.085938 2886.71875 590.449219 C 2875.265625 598.984375 2865.617188 608.636719 2857.296875 619.863281 C 2814.417969 677.789062 2819.578125 763.324219 2873.683594 878.269531 C 2877.042969 885.230469 2880.425781 892.414062 2884.234375 899.597656 C 2887.59375 906.554688 2891.203125 913.519531 2895.238281 920.699219 C 2923.078125 973.011719 2960.34375 1030.929688 3006.355469 1094.472656 C 3010.640625 1100.300781 3015.128906 1106.601562 3019.839844 1112.660156 C 3022.972656 1117.140625 3026.582031 1121.859375 3029.9375 1126.351562 C 3031.066406 1127.921875 3032.195312 1129.269531 3033.296875 1130.839844 C 3169.578125 1312.019531 3337.734375 1483.761719 3422.164062 1546.179688 C 3511.054688 1611.738281 3620.84375 1639.351562 3731.0625 1622.730469 C 3840.851562 1606.121094 3937.613281 1547.96875 4003.621094 1458.621094 C 4069.632812 1369.269531 4096.796875 1259.480469 4080.183594 1149.699219" style="fill: rgb(255, 0, 20);"/></g><g id="__id407_sbhd3yumbc"><path d="M 2862.464844 923.621094 C 2757.386719 923.621094 2672.308594 838.53125 2672.308594 733.464844 C 2672.308594 628.394531 2757.386719 543.308594 2862.464844 543.308594 C 2879.972656 543.308594 2896.808594 545.777344 2912.976562 550.261719 C 2918.800781 551.609375 2924.417969 553.632812 2930.039062 555.65625 C 2935.433594 557.671875 2940.808594 559.917969 2945.738281 562.617188 C 2988.640625 583.269531 3022.316406 619.859375 3039.597656 664.539062 C 3041.160156 668.128906 3042.519531 671.949219 3043.636719 675.765625 C 3044.976562 679.582031 3045.867188 683.398438 3046.78125 687.210938 C 3050.59375 702.035156 3052.621094 717.523438 3052.621094 733.464844 C 3052.621094 778.363281 3037.125 819.449219 3011.300781 852.003906 C 3031.972656 891.066406 3061.144531 938.664062 3101.550781 995.910156 L 3271.28125 820.566406 C 3291.707031 798.347656 3303.167969 770.953125 3305.847656 742.890625 C 3306.3125 739.074219 3306.535156 735.035156 3306.535156 731.214844 C 3306.535156 727.175781 3306.3125 723.363281 3306.089844 719.324219 C 3303.839844 690.359375 3292.378906 662.070312 3271.28125 638.949219 L 3210.445312 576.082031 L 3196.304688 561.488281 L 3182.613281 547.347656 L 2692.71875 41.082031 C 2667.136719 14.816406 2632.328125 0 2595.753906 0 L 134.703125 0 C 60.390625 0 0 60.394531 0 134.703125 L 0 1324.589844 C 0 1399.121094 60.390625 1459.289062 134.703125 1459.289062 L 2595.753906 1459.289062 C 2632.328125 1459.289062 2667.136719 1444.46875 2692.71875 1418.429688 L 2990.652344 1110.628906 C 2940.585938 1042.160156 2900.847656 979.746094 2871.433594 923.394531 C 2868.511719 923.621094 2865.367188 923.621094 2862.464844 923.621094" style="fill: rgb(255, 0, 20);"/></g></g></svg>